<svg width="100" height="100" viewBox="0 0 100 100" fill="none" xmlns="http://www.w3.org/2000/svg">
<path d="M58.3332 8.33325C58.3332 8.33325 67.4999 9.16659 79.1666 20.8333C90.8332 32.4999 91.6666 41.6666 91.6666 41.6666M59.1957 23.0666C59.1957 23.0666 63.3207 24.2416 69.5082 30.4291C75.6957 36.6166 76.8749 40.7416 76.8749 40.7416M16.6957 33.0541C16.3916 41.0041 18.4041 54.5083 31.9457 68.0541C34.8956 71.0308 38.1542 73.6847 41.6666 75.9707M23.0749 20.5708C28.8791 14.7666 38.1374 15.5458 41.8249 22.1541L44.5291 26.9958C46.9666 31.3708 45.9874 37.1041 42.1457 40.9499C42.1457 40.9499 37.4791 45.6124 45.9374 54.0666C54.3832 62.5124 59.0499 57.8582 59.0499 57.8582C62.8957 54.0124 68.6332 53.0332 73.0041 55.4707L77.8499 58.1791C84.4541 61.8624 85.2332 71.1207 79.4291 76.9291C75.9416 80.4124 71.6666 83.1291 66.9457 83.3041C62.6286 83.4535 58.3151 82.9163 54.1666 81.7124" stroke="#FF7E00" stroke-width="1.875" stroke-linecap="round"/>
</svg>
